<?xml version="1.0" standalone="no"?>
<!DOCTYPE svg PUBLIC "-//W3C//DTD SVG 20010904//EN"
 "http://www.w3.org/TR/2001/REC-SVG-20010904/DTD/svg10.dtd">
<svg version="1.0" xmlns="http://www.w3.org/2000/svg"
 width="512.000000pt" height="512.000000pt" viewBox="0 0 512.000000 512.000000"
 preserveAspectRatio="xMidYMid meet">

<g transform="translate(0.000000,512.000000) scale(0.100000,-0.100000)"
fill="#000000" stroke="currentColor" stroke-width="1.5">
<path d="M682 4337 c-43 -13 -118 -80 -141 -126 -63 -123 -12 -277 113 -344
l41 -22 1865 0 1865 0 41 22 c124 67 176 222 114 343 -10 19 -36 52 -57 72
-76 73 80 68 -1967 67 -1258 -1 -1851 -4 -1874 -12z"/>
<path d="M686 3314 c-106 -33 -187 -161 -172 -272 8 -57 52 -138 91 -168 76
-57 -12 -54 1436 -54 1016 0 1341 3 1373 12 55 16 138 99 154 154 34 115 -3
231 -92 291 -26 18 -64 37 -84 43 -24 6 -484 10 -1347 9 -1132 0 -1317 -2
-1359 -15z"/>
<path d="M652 2274 c-155 -77 -187 -280 -63 -404 87 -87 -82 -80 1971 -80
2053 0 1884 -7 1971 80 116 116 94 309 -45 395 l-49 30 -1867 3 -1866 2 -52
-26z"/>
<path d="M700 1271 c-154 -47 -231 -221 -159 -362 24 -49 99 -113 147 -127 29
-9 378 -12 1368 -12 l1329 0 50 24 c93 44 144 126 145 232 0 109 -67 204 -169
239 -39 13 -205 15 -1365 14 -727 0 -1332 -4 -1346 -8z"/>
</g>
</svg>
