<?xml version="1.0" standalone="no"?>
<!DOCTYPE svg PUBLIC "-//W3C//DTD SVG 20010904//EN"
 "http://www.w3.org/TR/2001/REC-SVG-20010904/DTD/svg10.dtd">
<svg version="1.0" xmlns="http://www.w3.org/2000/svg"
 width="512.000000pt" height="512.000000pt" viewBox="0 0 512.000000 512.000000"
 preserveAspectRatio="xMidYMid meet">

<g transform="translate(0.000000,512.000000) scale(0.100000,-0.100000)"
fill="#000000" stroke="none">
<path d="M1276 3861 c-657 -263 -1159 -469 -1172 -482 -13 -12 -31 -42 -40
-65 -14 -37 -15 -50 -4 -88 7 -24 25 -57 41 -72 21 -20 165 -82 497 -215 l467
-187 5 -670 c6 -773 -9 -679 124 -794 205 -178 513 -342 784 -418 187 -53 270
-64 477 -64 252 0 418 31 649 120 299 115 682 373 725 487 7 19 11 246 11 682
l0 653 340 136 c187 75 345 136 350 136 6 0 10 -140 10 -399 0 -397 0 -398 23
-432 39 -58 84 -81 145 -77 64 6 99 29 130 88 22 44 22 45 22 567 0 572 1 565
-58 615 -39 33 -2279 929 -2336 935 -36 3 -192 -57 -1190 -456z m2111 -246
c480 -192 871 -350 869 -353 -3 -2 -409 -165 -903 -363 l-898 -359 -904 362
c-689 275 -900 364 -885 370 10 5 417 168 904 362 835 334 887 353 915 342 17
-7 423 -169 902 -361z m-1469 -1204 c328 -131 515 -201 538 -201 24 0 200 65
503 186 256 102 487 194 514 205 l47 19 0 -543 0 -544 -95 -69 c-367 -267
-785 -385 -1160 -329 -291 44 -605 183 -827 368 l-48 39 0 540 c0 428 3 539
13 535 6 -3 238 -95 515 -206z"/>
</g>
</svg>
